<?xml version="1.0" standalone="no"?>
<!DOCTYPE svg PUBLIC "-//W3C//DTD SVG 20010904//EN"
 "http://www.w3.org/TR/2001/REC-SVG-20010904/DTD/svg10.dtd">
<svg version="1.0" xmlns="http://www.w3.org/2000/svg"
 width="2880.000000pt" height="2880.000000pt" viewBox="0 0 2880.000000 2880.000000"
 preserveAspectRatio="xMidYMid meet">
<metadata>
Created by potrace 1.14, written by Peter Selinger 2001-2017
</metadata>
<g transform="translate(0.000000,2880.000000) scale(0.100000,-0.100000)"
fill="#000000" stroke="none">
<path d="M6952 18868 c-7 -7 -12 -9 -12 -5 0 11 -71 -28 -108 -59 -38 -32 -77
-93 -88 -139 -5 -16 -8 -1537 -9 -3380 l0 -3350 23 -49 c33 -69 98 -129 166
-155 56 -21 67 -21 684 -19 l627 3 46 23 c50 26 119 85 119 101 0 6 5 11 12
11 6 0 8 3 5 7 -4 3 -2 12 4 19 34 41 35 89 34 1628 l0 1518 145 143 c158 156
191 187 300 285 40 36 78 70 84 75 6 6 31 26 56 45 25 19 47 37 50 41 3 3 41
31 85 62 44 31 85 60 90 65 32 26 163 93 240 124 128 51 176 61 305 61 88 0
248 -11 259 -17 3 -2 22 -7 41 -10 59 -10 73 -13 150 -41 131 -48 241 -134
316 -245 35 -52 80 -147 90 -187 4 -16 9 -32 13 -38 3 -5 6 -14 7 -20 1 -5 5
-23 9 -40 4 -16 11 -52 16 -80 5 -27 12 -63 15 -80 8 -38 15 -968 13 -1590 0
-258 -1 -479 0 -490 0 -11 2 -276 3 -590 l3 -570 28 -53 c15 -29 34 -55 42
-59 8 -3 12 -9 9 -14 -3 -5 2 -9 10 -9 9 0 16 -5 16 -11 0 -5 28 -23 63 -39
l62 -29 632 0 c387 0 635 4 638 10 4 5 13 9 21 9 26 0 109 61 134 99 14 20 29
39 35 43 5 4 6 8 2 8 -4 0 -3 9 3 21 6 11 14 30 16 42 8 34 7 3017 -1 3162 -9
172 -12 213 -18 255 -3 19 -9 62 -13 95 -11 87 -11 88 -17 115 -3 14 -8 36
-11 50 -31 144 -34 159 -73 285 -15 50 -27 93 -28 97 0 4 -6 13 -12 20 -7 6
-13 22 -13 33 0 12 -3 25 -7 29 -5 4 -8 11 -8 14 -1 4 -9 22 -18 40 -10 17
-14 32 -10 32 5 0 4 4 -2 8 -5 4 -26 38 -45 76 -36 70 -130 222 -166 265 -112
137 -215 239 -328 326 -14 11 -35 28 -47 37 -12 10 -45 32 -73 50 -28 18 -54
37 -58 43 -5 6 -8 6 -8 0 0 -7 -3 -7 -8 0 -16 22 -194 111 -307 154 -33 13
-69 27 -80 32 -16 7 -119 38 -147 45 -5 1 -10 3 -13 4 -7 3 -13 5 -65 15 -25
5 -47 9 -50 10 -38 9 -72 15 -105 20 -22 3 -53 8 -70 11 -16 3 -53 7 -82 8
-28 2 -55 6 -60 9 -10 6 -444 1 -498 -6 -22 -3 -65 -8 -95 -12 -30 -4 -58 -9
-62 -11 -4 -3 -26 -6 -50 -9 -46 -4 -284 -66 -334 -86 -16 -7 -33 -13 -39 -14
-74 -18 -360 -150 -399 -184 -10 -9 -19 -14 -20 -12 -2 7 -46 -10 -46 -19 0
-5 -10 -12 -21 -15 -44 -14 -262 -164 -417 -287 -40 -32 -74 -58 -75 -58 -1 0
-2 467 -2 1039 -1 855 -3 1041 -14 1055 -7 9 -11 16 -7 16 4 0 -2 17 -13 38
-26 50 -85 107 -141 135 -45 22 -47 22 -680 25 -486 1 -639 -1 -648 -10z"/>
<path d="M2599 17285 c-3 -2 -31 -7 -62 -10 -125 -11 -163 -15 -187 -19 -14
-3 -45 -7 -70 -10 -25 -3 -55 -8 -66 -10 -12 -2 -39 -7 -60 -11 -46 -8 -69
-13 -69 -15 0 -1 -9 -3 -20 -4 -18 -2 -93 -17 -105 -21 -20 -6 -59 -17 -71
-19 -8 -1 -68 -20 -134 -41 -66 -21 -122 -39 -125 -40 -3 -1 -16 -6 -30 -12
-33 -15 -73 -30 -82 -32 -11 -3 -191 -90 -208 -101 -8 -5 -35 -20 -60 -33 -25
-13 -85 -50 -134 -83 -48 -32 -95 -63 -104 -69 -10 -5 -19 -12 -22 -15 -3 -3
-38 -32 -79 -65 -94 -76 -331 -312 -331 -330 0 -3 -8 -13 -17 -23 -10 -10 -25
-29 -33 -42 -8 -13 -23 -32 -32 -42 -10 -10 -18 -22 -18 -28 0 -5 -3 -10 -8
-10 -4 0 -12 -9 -17 -19 -6 -11 -38 -67 -72 -124 -64 -108 -129 -236 -125
-249 1 -5 -2 -8 -8 -8 -6 0 -9 -3 -8 -7 0 -5 -3 -17 -7 -28 -56 -137 -127
-360 -141 -444 -3 -14 -7 -34 -10 -43 -3 -10 -7 -30 -10 -45 -2 -16 -7 -39
-10 -53 -11 -46 -25 -139 -39 -260 -26 -217 -26 -730 -1 -950 15 -124 26 -198
43 -275 8 -38 16 -79 18 -90 1 -11 8 -42 15 -70 6 -27 13 -55 14 -62 1 -7 5
-16 9 -19 4 -4 7 -15 7 -24 0 -20 36 -138 50 -162 6 -10 10 -24 10 -31 0 -7 9
-32 20 -55 11 -22 20 -48 20 -56 0 -8 7 -22 16 -30 8 -9 13 -16 10 -16 -7 0
51 -121 94 -196 19 -33 35 -65 36 -71 1 -7 8 -19 16 -27 7 -7 18 -22 25 -32
58 -88 94 -139 142 -198 73 -90 264 -286 279 -286 7 0 12 -4 12 -9 0 -13 170
-139 281 -210 115 -72 336 -186 379 -196 3 -1 21 -8 41 -17 20 -9 47 -19 60
-22 13 -4 33 -11 44 -16 39 -17 219 -70 240 -70 12 0 25 -4 31 -9 5 -5 25 -11
44 -14 19 -3 56 -10 83 -16 26 -6 64 -14 83 -17 20 -3 46 -8 58 -10 24 -5 96
-15 141 -19 17 -2 30 -4 30 -5 0 -2 31 -5 165 -16 185 -17 896 -8 1098 12 26
3 65 7 87 8 51 4 152 16 185 21 14 2 45 7 70 10 25 3 69 10 99 15 29 5 57 7
62 4 5 -3 9 -1 9 5 0 5 8 9 18 9 22 -1 48 5 262 57 41 10 171 51 200 62 8 4
18 7 22 7 3 1 10 4 14 9 4 4 13 7 19 7 7 0 39 12 71 27 33 15 61 27 64 28 18
6 72 34 107 58 24 15 46 27 50 27 16 0 169 121 231 182 111 110 196 245 251
403 36 101 42 125 45 185 5 75 -62 172 -164 242 -60 41 -197 104 -245 113 -11
2 -42 9 -70 15 -27 6 -66 13 -85 15 -19 2 -49 7 -66 10 -17 3 -51 7 -75 10
-24 3 -60 7 -79 10 -67 9 -257 24 -325 25 -123 2 -345 -58 -345 -93 0 -6 -3
-8 -6 -5 -5 6 -48 -35 -103 -98 -32 -36 -124 -100 -196 -136 -49 -25 -188 -73
-242 -83 -74 -14 -163 -27 -213 -32 -89 -8 -505 -3 -505 7 0 1 -18 3 -40 6
-100 11 -254 46 -320 73 -89 37 -161 73 -222 114 -70 47 -175 149 -210 205
-10 15 -20 29 -23 32 -26 24 -127 258 -145 335 -46 200 -48 209 -59 323 -7 65
-2 87 16 75 13 -7 206 -5 219 3 5 3 9 2 9 -3 0 -4 19 -7 42 -6 78 3 92 4 170
3 43 -1 82 1 87 4 5 4 12 2 16 -4 4 -6 11 -8 16 -4 6 3 38 5 72 5 159 -5 366
-3 375 3 6 3 13 2 17 -3 3 -6 11 -8 19 -5 17 7 146 10 146 4 0 -3 19 -4 42 -3
43 3 89 3 118 2 23 -1 112 0 140 2 14 0 31 0 38 0 23 -2 37 -2 67 -1 17 0 54
0 83 0 28 0 59 0 67 1 30 0 85 0 103 -1 9 0 28 0 42 1 14 0 32 0 40 0 64 -3
203 0 211 4 5 4 9 3 9 -2 0 -4 19 -7 42 -6 78 3 92 4 170 3 43 -1 82 1 87 4 5
4 12 2 16 -4 4 -6 11 -8 16 -4 6 3 38 5 72 5 159 -5 366 -3 375 3 6 3 13 2 17
-3 3 -6 11 -8 19 -5 17 7 146 10 146 4 0 -3 19 -4 42 -3 73 3 91 4 177 4 46 0
88 2 93 5 4 3 8 2 8 -3 0 -4 19 -7 42 -6 24 1 54 2 68 3 14 1 59 1 100 1 41
-1 95 1 120 2 50 4 140 35 140 48 0 5 5 9 12 9 15 0 74 67 93 106 25 53 29
100 29 349 0 315 -17 579 -39 615 -3 5 -1 10 5 10 6 0 8 5 4 12 -4 7 -9 22
-10 34 -3 25 -11 78 -19 114 -6 30 -28 133 -30 140 -1 3 -5 19 -9 35 -4 17
-12 50 -19 75 -6 25 -12 47 -13 50 0 3 -3 12 -7 20 -3 8 -19 56 -36 105 -16
50 -37 107 -46 127 -8 21 -15 40 -15 43 0 3 -16 35 -35 72 -19 37 -35 73 -35
80 0 7 -4 13 -10 13 -5 0 -10 4 -10 9 0 15 -109 198 -125 211 -8 7 -15 16 -15
21 0 9 -79 114 -135 179 -85 98 -234 238 -340 319 -22 17 -45 35 -51 40 -6 4
-37 26 -70 47 -32 22 -60 42 -62 47 -2 4 -10 7 -17 7 -8 0 -20 6 -27 13 -16
13 -39 26 -165 90 -91 46 -179 87 -187 87 -3 0 -17 5 -33 12 -15 6 -30 12 -33
13 -3 0 -15 6 -27 13 -13 7 -23 10 -23 7 0 -3 -8 -1 -19 4 -34 19 -277 86
-381 106 -14 3 -45 10 -70 15 -43 9 -91 17 -155 25 -16 3 -46 7 -65 9 -154 23
-253 28 -555 31 -154 2 -287 -1 -296 -6 -9 -4 -20 -4 -26 2 -5 5 -12 7 -14 4z
m496 -1139 c39 -4 77 -9 85 -11 8 -3 29 -7 45 -9 245 -39 471 -175 610 -371
37 -51 110 -180 116 -203 1 -4 6 -18 11 -32 18 -46 58 -192 58 -209 0 -10 3
-21 7 -24 3 -4 7 -22 9 -39 1 -18 5 -51 9 -73 3 -22 8 -76 11 -120 l6 -80
-1144 1 c-628 1 -1149 2 -1157 3 -10 1 -12 17 -7 74 3 39 8 86 10 102 3 17 7
46 9 66 3 20 7 41 10 46 3 5 8 27 10 48 3 22 10 52 16 68 6 15 9 27 6 27 -2 0
9 30 24 68 15 37 29 72 30 77 5 22 64 131 101 185 33 49 135 159 183 197 63
51 185 114 282 148 55 19 52 18 110 30 56 12 55 12 58 15 3 2 44 7 142 15 44
4 81 8 82 9 5 4 204 -2 268 -8z"/>
<path d="M21927 17283 c-2 -2 -51 -6 -108 -8 -57 -3 -122 -7 -144 -9 -22 -3
-76 -8 -120 -11 -44 -4 -87 -9 -96 -10 -9 -2 -40 -6 -70 -10 -30 -3 -66 -8
-81 -11 -15 -3 -41 -7 -58 -9 -67 -9 -116 -16 -130 -20 -8 -2 -31 -7 -50 -10
-19 -3 -51 -10 -70 -15 -19 -5 -47 -11 -62 -14 -15 -2 -62 -14 -105 -26 -43
-12 -85 -23 -93 -25 -85 -19 -357 -130 -460 -187 -155 -88 -340 -240 -415
-341 -11 -15 -26 -34 -33 -42 -55 -62 -149 -271 -155 -347 -10 -111 73 -230
206 -296 74 -37 148 -63 159 -56 4 3 8 0 8 -6 0 -7 6 -10 13 -7 6 2 21 1 33
-4 11 -4 36 -10 55 -13 19 -3 59 -10 89 -17 30 -6 69 -12 85 -14 17 -2 46 -6
65 -10 39 -7 72 -12 140 -20 25 -4 61 -8 80 -11 61 -9 333 -11 390 -4 148 20
212 51 304 144 39 40 98 91 131 113 53 35 77 47 160 83 20 9 92 32 110 36 6 1
21 4 35 7 14 3 36 8 50 11 86 19 207 29 365 29 122 0 271 -9 305 -18 8 -2 37
-6 64 -10 27 -3 53 -8 57 -10 4 -3 23 -7 43 -11 20 -3 61 -14 91 -24 30 -10
55 -16 55 -13 0 4 7 -2 15 -13 8 -10 15 -16 15 -11 0 7 80 -30 90 -42 3 -3 17
-12 32 -20 28 -14 138 -120 138 -132 0 -4 6 -14 13 -21 16 -17 89 -158 82
-158 -3 0 0 -10 7 -22 7 -13 11 -29 9 -36 -1 -8 2 -19 7 -25 5 -7 13 -30 17
-52 5 -22 10 -47 11 -55 2 -8 6 -33 8 -55 3 -22 6 -40 7 -40 0 0 3 -18 4 -40
2 -22 4 -40 5 -40 0 0 2 -42 4 -93 2 -62 -1 -95 -8 -98 -6 -2 -450 -5 -986 -8
-536 -2 -993 -6 -1015 -9 -64 -8 -149 -18 -165 -19 -8 0 -35 -4 -60 -8 -25 -5
-63 -11 -85 -14 -47 -7 -55 -9 -155 -31 -41 -9 -80 -17 -87 -19 -7 -1 -16 -5
-19 -9 -4 -4 -16 -7 -26 -7 -19 0 -194 -54 -243 -75 -16 -7 -57 -24 -90 -36
-33 -13 -61 -27 -63 -31 -2 -5 -10 -8 -19 -8 -24 0 -326 -171 -353 -200 -3 -3
-32 -25 -64 -49 -53 -40 -177 -159 -246 -238 -57 -65 -160 -239 -203 -343 -50
-121 -95 -296 -101 -394 -2 -24 -6 -47 -8 -52 -7 -12 -2 -386 6 -444 16 -120
60 -292 95 -375 54 -126 160 -313 184 -323 4 -2 7 -7 7 -11 0 -24 199 -224
285 -287 33 -25 73 -54 89 -67 16 -12 31 -21 33 -19 2 1 10 -3 18 -10 35 -31
45 -38 59 -38 8 0 16 -4 18 -8 8 -21 369 -191 391 -184 4 1 7 -3 7 -10 0 -6 3
-9 6 -5 3 3 29 -3 58 -13 60 -22 165 -53 186 -55 9 0 20 -4 25 -7 6 -4 30 -9
54 -13 24 -3 53 -10 65 -14 11 -5 24 -9 29 -9 4 0 26 -3 50 -7 179 -28 173
-27 307 -40 41 -3 102 -8 135 -10 69 -5 413 -5 465 0 19 1 71 6 115 9 44 4 91
9 105 11 61 9 117 18 135 21 11 2 34 6 50 9 17 3 42 8 57 11 15 3 31 6 35 6 5
0 18 4 31 9 13 5 35 11 50 14 55 10 70 14 202 58 74 25 161 56 192 70 31 14
58 23 61 21 2 -3 10 2 17 11 7 8 17 15 23 15 12 0 193 90 252 126 22 13 47 27
55 31 8 4 35 21 60 37 26 17 53 36 62 41 9 6 30 20 47 33 l31 23 1 -90 c1 -50
3 -95 4 -101 1 -5 3 -22 4 -38 1 -30 70 -154 82 -147 4 3 9 -2 12 -10 4 -8 30
-27 59 -42 l53 -28 570 0 c559 0 571 0 615 21 97 46 160 141 166 247 1 32 5
61 7 64 3 2 1 18 -3 34 -5 16 -6 29 -2 29 4 0 6 26 4 57 -1 32 -3 64 -2 71 0
6 0 19 0 27 0 8 0 22 0 30 0 8 0 22 0 30 0 8 0 22 0 30 0 8 0 22 0 30 0 8 0
22 0 30 0 8 0 22 0 30 0 8 0 22 0 30 0 8 0 22 0 30 0 8 0 22 0 30 0 8 0 22 0
30 0 8 0 22 0 30 0 8 0 22 0 30 0 8 0 22 0 30 0 8 0 22 0 30 0 8 0 22 0 30 0
8 0 22 0 30 0 8 0 22 0 30 0 8 0 22 0 30 0 8 0 21 0 28 -1 6 1 31 2 55 2 23 0
42 -4 42 -4 0 -3 14 2 30 5 17 5 30 0 30 -5 0 -5 13 0 30 5 17 5 30 0 30 -5 0
-5 13 0 30 5 17 5 30 0 30 -5 0 -5 13 0 30 5 17 5 30 0 30 -5 0 -5 13 0 30 5
17 6 30 2 30 -4 0 -7 16 -7 35 0 19 3 35 7 35 4 0 3 14 -2 30 -5 17 -5 30 0
30 4 0 5 12 1 27 -4 16 -4 44 -1 65 4 20 4 42 -1 49 -4 7 -4 20 1 29 5 9 5 22
0 30 -5 8 -5 21 0 30 5 9 5 22 0 30 -5 8 -5 21 0 30 5 9 5 22 0 30 -5 8 -5 21
0 30 5 9 5 22 0 30 -5 8 -5 21 0 30 5 9 5 22 0 30 -5 8 -5 21 0 30 5 9 5 22 0
30 -5 8 -5 21 0 30 5 9 5 22 0 30 -5 8 -5 21 0 30 5 9 5 22 0 30 -5 8 -5 21 0
30 5 9 5 22 0 30 -5 8 -5 21 0 30 5 9 5 22 0 30 -5 8 -6 18 -3 23 8 13 9 87 1
87 -4 0 -3 14 2 30 5 17 5 30 0 30 -5 0 -5 13 0 30 5 17 5 30 0 30 -5 0 -5 13
0 30 5 17 5 30 0 30 -5 0 -5 13 0 30 5 17 5 30 0 30 -5 0 -5 13 0 30 5 17 6
30 2 30 -4 0 -7 16 -7 35 0 19 3 35 7 35 4 0 3 14 -2 30 -5 19 -5 30 1 30 6 0
7 4 4 10 -8 13 -11 108 -3 115 3 4 2 19 -2 35 -4 16 -6 31 -3 34 8 8 9 146 1
146 -4 0 -3 12 1 28 5 15 5 37 0 49 -4 12 -4 25 1 28 5 3 5 18 0 34 -4 15 -4
34 0 42 5 7 7 16 4 20 -2 5 -7 52 -9 106 -3 54 -7 114 -10 133 -13 99 -19 148
-19 173 -1 15 -5 27 -10 27 -5 0 -7 3 -4 6 3 3 -1 33 -9 67 -8 34 -17 71 -19
82 -3 11 -7 31 -10 44 -3 13 -10 34 -16 45 -6 12 -11 22 -10 23 1 2 0 8 -3 15
-2 7 -9 31 -16 53 -11 39 -36 99 -65 159 -8 16 -14 35 -14 43 0 7 -4 13 -8 13
-5 0 -14 16 -22 35 -8 19 -17 35 -22 35 -4 0 -8 6 -8 12 0 13 -45 83 -114 178
-51 70 -257 276 -316 315 -25 17 -51 35 -57 42 -7 6 -41 28 -75 49 -35 21 -65
41 -68 44 -3 4 -34 22 -70 41 -36 18 -68 37 -71 42 -3 5 -9 8 -12 8 -4 0 -28
9 -54 21 -27 12 -50 22 -53 23 -3 0 -21 8 -40 17 -81 39 -281 108 -385 134 -5
1 -39 10 -75 19 -36 9 -74 18 -85 20 -61 13 -83 17 -115 21 -51 8 -75 12 -75
14 0 1 -13 3 -30 5 -16 2 -55 7 -85 11 -195 24 -263 27 -622 29 -197 1 -359 1
-361 -2z m1304 -3312 c3 0 5 -176 5 -390 l0 -388 -49 -29 c-27 -16 -62 -37
-78 -46 -16 -10 -29 -14 -29 -10 0 4 -4 2 -8 -4 -8 -13 -164 -94 -180 -94 -6
0 -12 -4 -14 -9 -1 -5 -12 -11 -23 -13 -11 -1 -22 -6 -25 -9 -3 -4 -36 -19
-75 -33 -38 -15 -81 -32 -95 -38 -14 -5 -25 -8 -26 -6 0 1 -8 -3 -17 -11 -10
-7 -17 -11 -17 -7 0 3 -17 -1 -37 -9 -31 -11 -80 -26 -135 -41 -5 -1 -10 -3
-13 -4 -7 -4 -14 -5 -62 -14 -24 -4 -43 -11 -43 -14 0 -4 -12 -7 -27 -8 -28
-1 -84 -8 -133 -18 -118 -24 -430 -37 -545 -23 -128 16 -168 26 -265 64 -68
27 -178 100 -217 143 -13 14 -34 37 -47 52 -32 36 -98 169 -99 202 -1 14 -4
26 -7 26 -21 0 -11 250 11 293 5 9 8 17 5 17 -9 0 36 94 65 137 108 158 291
255 524 279 33 4 61 7 62 8 2 1 1586 -1 1594 -3z"/>
<path d="M13415 17189 c-66 -9 -104 -24 -138 -57 -63 -60 -101 -164 -73 -201
6 -8 10 -16 9 -18 -2 -1 -3 -4 -2 -5 0 -2 2 -11 4 -21 2 -9 15 -56 30 -104 15
-47 28 -91 29 -97 1 -6 21 -72 45 -146 23 -74 49 -157 57 -185 9 -27 18 -57
21 -65 3 -8 7 -21 9 -27 1 -7 11 -41 22 -75 11 -35 32 -103 47 -153 15 -49 40
-130 55 -180 16 -49 45 -144 65 -210 20 -66 41 -133 48 -149 6 -17 12 -37 12
-45 1 -14 37 -130 52 -171 3 -8 7 -22 9 -30 2 -8 15 -49 29 -90 14 -41 27 -84
29 -95 2 -11 4 -20 5 -20 2 0 4 -8 7 -17 6 -27 10 -41 16 -58 4 -8 16 -49 28
-90 23 -76 51 -167 111 -360 18 -58 33 -107 34 -110 1 -3 9 -31 18 -62 10 -32
18 -61 19 -65 1 -5 8 -24 16 -43 8 -19 13 -35 12 -35 -3 0 66 -228 77 -255 4
-8 7 -17 8 -20 7 -30 83 -247 95 -275 5 -11 21 -49 35 -85 33 -82 127 -273
138 -281 5 -3 8 -8 7 -10 -3 -5 40 -79 103 -176 26 -40 47 -78 47 -82 0 -5 3
-11 8 -13 11 -5 67 -80 75 -100 3 -10 11 -18 17 -18 5 0 10 -4 10 -10 0 -10
102 -148 173 -232 21 -27 37 -48 35 -48 -16 0 248 -269 304 -310 21 -15 34
-30 31 -34 -3 -3 1 -6 9 -6 9 0 18 -3 20 -8 3 -8 139 -106 148 -107 3 -1 21
-11 40 -23 59 -38 230 -120 320 -152 107 -39 86 -34 278 -72 l162 -33 -6 -30
c-6 -28 -72 -174 -84 -185 -3 -3 -11 -16 -18 -30 -86 -169 -243 -334 -392
-412 -99 -52 -172 -74 -295 -87 -75 -8 -91 -7 -205 10 -41 6 -91 13 -110 15
-19 2 -51 5 -70 8 -19 3 -55 8 -80 11 -77 9 -113 14 -165 22 -27 5 -122 8
-210 8 -130 0 -168 -3 -203 -18 -48 -19 -132 -92 -132 -114 0 -7 -4 -13 -8
-13 -18 0 -36 -81 -39 -175 -3 -133 -4 -171 -2 -295 1 -36 1 -71 0 -77 -11
-195 9 -284 82 -361 31 -32 123 -82 152 -82 7 0 16 -4 19 -8 4 -8 32 -15 134
-37 12 -3 32 -7 45 -10 104 -23 236 -41 377 -50 401 -27 1038 -27 1178 0 11 2
37 6 57 9 102 17 273 67 368 109 31 14 57 23 57 20 0 -3 6 -1 13 6 8 6 49 29
92 51 43 23 84 48 91 55 8 8 23 17 34 20 11 3 20 11 20 16 0 5 5 9 12 9 6 0
18 7 27 15 9 8 43 37 75 63 62 49 226 210 226 221 0 4 8 14 18 22 9 9 26 29
37 44 11 16 25 33 30 39 6 6 26 34 45 61 19 28 40 56 47 63 7 8 11 18 8 23 -4
5 -2 9 3 9 7 0 34 42 99 154 45 79 174 336 179 356 1 8 23 61 39 95 8 16 23
55 35 85 11 30 25 64 29 75 29 63 168 478 176 524 2 14 9 37 14 51 6 14 16 45
22 70 7 25 13 47 14 50 1 3 7 25 15 50 7 25 15 52 17 60 1 8 28 103 58 210 31
107 58 206 61 220 9 37 10 44 17 60 17 44 55 195 51 202 -3 4 -1 8 4 8 5 0 9
6 9 13 0 6 15 62 32 122 18 61 34 117 36 125 2 8 22 80 45 160 23 80 43 152
45 160 4 18 23 89 65 235 17 61 33 119 35 129 2 10 10 35 17 55 6 20 13 43 14
51 1 8 14 56 28 105 14 50 28 97 30 105 2 8 14 51 26 95 12 44 23 84 24 90 1
5 5 16 9 23 5 6 6 12 3 12 -3 0 -1 12 5 28 6 15 12 34 14 42 2 8 16 58 31 110
14 52 27 100 28 105 1 6 5 16 9 23 5 6 6 12 2 12 -3 0 1 16 9 35 8 19 13 35
10 35 -2 0 2 16 10 35 8 19 13 35 11 35 -3 0 0 12 6 28 6 15 13 38 15 52 3 14
7 32 11 40 3 8 7 20 8 25 7 29 87 322 92 335 3 8 7 20 8 25 2 6 8 30 16 55 7
25 13 50 15 56 1 6 10 38 19 70 10 33 18 64 20 69 1 6 5 17 8 25 3 8 10 35 16
60 7 25 14 52 16 60 8 28 66 235 80 285 7 28 37 133 66 235 28 102 52 190 53
195 1 6 5 16 9 23 5 6 6 12 4 12 -3 0 7 37 20 83 14 45 26 90 26 100 1 9 4 17
7 17 7 0 7 1 14 84 4 60 -2 82 -42 146 -28 47 -70 77 -124 90 -29 7 -233 10
-633 8 -576 -3 -591 -3 -635 -24 -61 -29 -119 -69 -156 -108 -30 -32 -100
-129 -96 -133 1 -2 -1 -8 -3 -15 -6 -16 -54 -178 -59 -198 -13 -52 -28 -107
-33 -120 -3 -8 -7 -20 -8 -26 -2 -6 -11 -38 -21 -70 -21 -70 -21 -73 -28 -101
-2 -12 -21 -79 -41 -150 -21 -70 -38 -135 -40 -143 -2 -8 -11 -37 -20 -64 -9
-27 -19 -61 -21 -75 -3 -14 -13 -53 -24 -86 -10 -33 -37 -127 -60 -210 -22
-82 -50 -179 -60 -215 -27 -90 -62 -213 -65 -225 -1 -5 -7 -30 -14 -55 -7 -25
-13 -46 -12 -47 0 -2 -6 -21 -14 -44 -9 -23 -17 -51 -20 -63 -7 -34 -11 -50
-75 -271 -33 -115 -69 -241 -79 -280 -11 -38 -47 -167 -81 -285 -34 -118 -63
-222 -65 -230 -2 -8 -15 -55 -30 -105 -14 -49 -28 -97 -30 -105 -6 -27 -76
-275 -82 -290 -8 -19 -7 -17 -17 -63 l-7 -39 -67 6 c-37 3 -82 10 -100 15 -18
5 -35 10 -37 10 -14 -1 -105 37 -145 60 -56 31 -153 107 -202 159 -45 47 -128
153 -128 163 0 4 -6 14 -13 21 -22 22 -126 217 -172 323 -14 33 -30 68 -36 79
-6 10 -12 27 -14 37 -2 10 -11 33 -19 51 -26 57 -155 425 -172 493 -7 28 -10
38 -17 55 -7 18 -48 151 -51 165 -2 6 -11 36 -20 69 -10 32 -19 64 -21 70 -1
6 -5 18 -8 26 -6 13 -41 125 -127 407 -15 51 -25 94 -22 97 3 4 0 6 -6 6 -7 0
-12 8 -12 19 0 10 -7 35 -15 55 -8 20 -15 39 -15 43 0 5 -6 28 -14 53 -8 25
-30 97 -49 160 -19 63 -52 169 -73 235 -21 66 -39 125 -40 130 -1 6 -30 100
-64 210 -34 110 -66 214 -70 230 -4 17 -14 47 -23 68 -9 20 -16 38 -15 40 5
10 -49 91 -85 127 -61 63 -80 77 -148 111 -73 37 -83 39 -194 45 -149 7 -956
9 -1010 3z"/>
<path d="M27447 16963 c-3 -3 -27 -7 -54 -9 -122 -11 -305 -62 -421 -119 -40
-19 -77 -35 -82 -35 -6 0 -10 -4 -10 -9 0 -5 -8 -11 -17 -14 -30 -8 -175 -121
-243 -190 -75 -74 -88 -90 -138 -160 -20 -29 -39 -54 -42 -57 -15 -15 -107
-198 -115 -230 0 -3 -13 -41 -27 -85 -15 -44 -29 -98 -33 -120 -4 -22 -9 -51
-12 -65 -2 -14 -6 -53 -7 -86 -2 -34 -6 -67 -10 -72 -3 -6 -2 -13 4 -17 7 -4
7 -12 0 -26 -6 -10 -7 -19 -3 -19 4 0 9 -26 9 -58 2 -76 8 -123 29 -205 9 -37
18 -73 19 -80 11 -48 78 -200 124 -277 121 -202 303 -376 504 -482 24 -12 46
-21 51 -20 4 1 7 -2 7 -8 0 -5 7 -10 15 -10 8 0 23 -4 33 -9 48 -24 149 -58
199 -67 15 -2 35 -7 43 -10 66 -25 392 -24 504 1 12 3 32 7 46 9 14 3 52 14
85 26 33 12 65 23 70 24 6 1 19 7 30 13 11 6 22 11 25 10 8 -1 169 82 180 93
3 3 28 22 57 42 161 114 294 268 391 453 17 32 29 62 26 67 -3 4 -1 8 5 8 7 0
31 53 36 80 0 3 9 28 18 56 10 28 20 62 22 75 3 13 8 38 11 54 4 17 8 41 11
55 12 63 10 302 -3 386 -15 94 -51 233 -66 249 -4 5 -8 15 -8 22 0 39 -135
273 -195 337 -14 15 -25 29 -25 32 0 9 -115 117 -180 169 -97 78 -210 142
-345 196 -98 39 -257 72 -352 73 -24 1 -43 5 -43 9 0 5 -5 5 -11 1 -16 -10
-60 -11 -85 -2 -12 4 -24 4 -27 1z"/>
</g>
</svg>
