<svg width="15" height="14" viewBox="0 0 15 14" fill="none" xmlns="http://www.w3.org/2000/svg">
<path d="M8.34874 12.9061C8.66122 12.5936 8.62993 12.1249 8.34865 11.8124L4.5671 8.2502L13.5359 8.24945C13.9734 8.24942 14.2858 7.90564 14.2858 7.49939L14.2857 6.49939C14.2857 6.06189 13.9731 5.74942 13.5356 5.74945L4.5669 5.7502L8.34785 2.15613C8.62907 1.84361 8.62903 1.37486 8.34776 1.06238L7.6602 0.374941C7.34768 0.0937167 6.87893 0.0937557 6.5977 0.375029L0.504456 6.46929C0.22323 6.75056 0.223269 7.21931 0.504545 7.53179L6.5988 13.5938C6.88007 13.875 7.34882 13.875 7.6613 13.5937L8.34874 12.9061Z" fill="white"/>
</svg>
